<svg width="18" height="15" viewBox="0 0 18 15" fill="none" xmlns="http://www.w3.org/2000/svg">
<path d="M3.23729 9.08643L3.89588 10.4635L5.38309 10.1198L4.71709 11.4933L5.91305 12.4417L4.42398 12.7774L4.42815 14.3038L3.23729 13.3488L2.04648 14.3038L2.05065 12.7774L0.561523 12.4417L1.75754 11.4933L1.09145 10.1198L2.57874 10.4635L3.23729 9.08643Z" fill="#F0F0F0"/>
<path d="M13.9668 11.6954L14.2961 12.384L15.0397 12.2121L14.7066 12.8989L15.3047 13.3731L14.5601 13.5409L14.5622 14.3041L13.9668 13.8266L13.3714 14.3041L13.3734 13.5409L12.6289 13.3731L13.2269 12.8989L12.8939 12.2121L13.6375 12.384L13.9668 11.6954Z" fill="#F0F0F0"/>
<path d="M10.9033 4.39148L11.2326 5.08007L11.9762 4.90814L11.6432 5.5949L12.2412 6.06914L11.4967 6.23695L11.4987 7.00017L10.9033 6.52265L10.3079 7.00017L10.3099 6.23695L9.56543 6.06914L10.1634 5.5949L9.83041 4.90814L10.574 5.08007L10.9033 4.39148Z" fill="#F0F0F0"/>
<path d="M13.9668 0.217651L14.2961 0.906246L15.0397 0.734355L14.7067 1.42112L15.3046 1.89531L14.5601 2.06317L14.5622 2.82639L13.9668 2.34887L13.3714 2.82639L13.3734 2.06317L12.6289 1.89531L13.2268 1.42112L12.8939 0.734355L13.6375 0.906246L13.9668 0.217651Z" fill="#F0F0F0"/>
<path d="M16.6416 3.34778L16.9709 4.03637L17.7145 3.86443L17.3815 4.5512L17.9795 5.02543L17.2349 5.19329L17.237 5.95646L16.6416 5.479L16.0462 5.95646L16.0482 5.19329L15.3037 5.02543L15.9017 4.5512L15.5687 3.86443L16.3123 4.03637L16.6416 3.34778Z" fill="#F0F0F0"/>
<path d="M14.729 7.00037L14.988 7.79752H15.8262L15.1481 8.29023L15.4072 9.08734L14.729 8.59468L14.0509 9.08734L14.3099 8.29023L13.6318 7.79752H14.47L14.729 7.00037Z" fill="#F0F0F0"/>
</svg>
