<svg width="17" height="16" viewBox="0 0 17 16" fill="none" xmlns="http://www.w3.org/2000/svg">
<g clip-path="url(#clip0_7975_221861)">
<path d="M13.0218 2.83357C13.1738 3.20109 13.4655 3.49321 13.8327 3.64573L15.1206 4.17919C15.4882 4.33143 15.7802 4.62344 15.9324 4.99098C16.0847 5.35852 16.0847 5.77149 15.9324 6.13903L15.3993 7.42599C15.247 7.7937 15.2468 8.20708 15.3998 8.57461L15.932 9.86119C16.0074 10.0432 16.0463 10.2384 16.0463 10.4354C16.0464 10.6325 16.0076 10.8276 15.9322 11.0097C15.8567 11.1918 15.7462 11.3572 15.6068 11.4965C15.4675 11.6358 15.302 11.7463 15.1199 11.8217L13.833 12.3547C13.4654 12.5067 13.1733 12.7984 13.0208 13.1657L12.4873 14.4536C12.3351 14.8211 12.0431 15.1131 11.6755 15.2654C11.308 15.4176 10.895 15.4176 10.5275 15.2654L9.24053 14.7323C8.87298 14.5804 8.46017 14.5807 8.09284 14.7331L6.80495 15.2658C6.43761 15.4177 6.02501 15.4176 5.65776 15.2655C5.29052 15.1134 4.99867 14.8217 4.84633 14.4545L4.31271 13.1663C4.16075 12.7988 3.86906 12.5066 3.50178 12.3541L2.21389 11.8207C1.84651 11.6685 1.55458 11.3767 1.40229 11.0093C1.24999 10.642 1.24978 10.2292 1.40171 9.86175L1.93479 8.57478C2.08666 8.20723 2.08635 7.79441 1.93393 7.42709L1.40161 6.13828C1.32614 5.95624 1.28728 5.76111 1.28725 5.56405C1.28722 5.36698 1.32602 5.17184 1.40143 4.98978C1.47684 4.80772 1.58739 4.6423 1.72676 4.50298C1.86613 4.36365 2.03158 4.25316 2.21367 4.1778L3.50063 3.64472C3.86783 3.4929 4.15978 3.20158 4.3124 2.83472L4.84586 1.54683C4.9981 1.17929 5.29011 0.887276 5.65766 0.735035C6.0252 0.582794 6.43817 0.582794 6.80571 0.735035L8.09267 1.26811C8.46022 1.41998 8.87304 1.41967 9.24036 1.26725L10.5288 0.735862C10.8963 0.583706 11.3092 0.583738 11.6766 0.735948C12.0441 0.888159 12.3361 1.18009 12.4883 1.54753L13.022 2.8358L13.0218 2.83357Z" fill="#1570EF"/>
<path fill-rule="evenodd" clip-rule="evenodd" d="M11.7998 5.90291C11.9066 5.73503 11.9425 5.53157 11.8993 5.33728C11.8562 5.14299 11.7376 4.9738 11.5698 4.86691C11.4019 4.76003 11.1984 4.72422 11.0041 4.76735C10.8098 4.81048 10.6406 4.92903 10.5338 5.09691L7.59677 9.71191L6.25277 8.03191C6.12851 7.8765 5.94761 7.7768 5.74985 7.75477C5.55209 7.73273 5.35368 7.79016 5.19827 7.91441C5.04285 8.03867 4.94316 8.21957 4.92112 8.41733C4.89909 8.61508 4.95651 8.8135 5.08077 8.96891L7.08077 11.4689C7.1553 11.5622 7.25103 11.6363 7.36 11.6852C7.46897 11.734 7.58802 11.7561 7.70725 11.7497C7.82648 11.7432 7.94245 11.7084 8.04551 11.6481C8.14857 11.5877 8.23574 11.5037 8.29977 11.4029L11.7998 5.90291Z" fill="white"/>
</g>
<defs>
<clipPath id="clip0_7975_221861">
<rect width="16" height="16" fill="white" transform="translate(0.666504)"/>
</clipPath>
</defs>
</svg>
