<svg width="17" height="16" viewBox="0 0 17 16" fill="none" xmlns="http://www.w3.org/2000/svg">
<g clip-path="url(#clip0_7975_221725)">
<path d="M12.6888 2.83357C12.8408 3.20109 13.1324 3.49321 13.4997 3.64573L14.7876 4.17919C15.1552 4.33143 15.4472 4.62344 15.5994 4.99098C15.7517 5.35852 15.7517 5.77149 15.5994 6.13903L15.0663 7.42599C14.914 7.7937 14.9138 8.20708 15.0668 8.57461L15.599 9.86119C15.6744 10.0432 15.7133 10.2384 15.7133 10.4354C15.7134 10.6325 15.6746 10.8276 15.5992 11.0097C15.5237 11.1918 15.4132 11.3572 15.2738 11.4965C15.1345 11.6358 14.969 11.7463 14.7869 11.8217L13.4999 12.3547C13.1324 12.5067 12.8403 12.7984 12.6878 13.1657L12.1543 14.4536C12.0021 14.8211 11.7101 15.1131 11.3425 15.2654C10.975 15.4176 10.562 15.4176 10.1945 15.2654L8.90753 14.7323C8.53997 14.5804 8.12716 14.5807 7.75983 14.7331L6.47195 15.2658C6.10461 15.4177 5.692 15.4176 5.32476 15.2655C4.95751 15.1134 4.66567 14.8217 4.51332 14.4545L3.9797 13.1663C3.82774 12.7988 3.53605 12.5066 3.16877 12.3541L1.88088 11.8207C1.5135 11.6685 1.22158 11.3767 1.06928 11.0093C0.916981 10.642 0.916774 10.2292 1.0687 9.86175L1.60178 8.57478C1.75365 8.20723 1.75334 7.79441 1.60092 7.42709L1.06861 6.13828C0.993135 5.95624 0.954274 5.76111 0.954242 5.56405C0.95421 5.36698 0.99301 5.17184 1.06842 4.98978C1.14384 4.80772 1.25438 4.6423 1.39375 4.50298C1.53312 4.36365 1.69857 4.25316 1.88066 4.1778L3.16763 3.64472C3.53482 3.4929 3.82677 3.20158 3.97939 2.83472L4.51285 1.54683C4.6651 1.17929 4.95711 0.887276 5.32465 0.735035C5.69219 0.582794 6.10516 0.582794 6.4727 0.735035L7.75966 1.26811C8.12722 1.41998 8.54003 1.41967 8.90736 1.26725L10.1958 0.735862C10.5633 0.583706 10.9762 0.583738 11.3436 0.735948C11.7111 0.888159 12.0031 1.18009 12.1553 1.54753L12.689 2.8358L12.6888 2.83357Z" fill="#1570EF"/>
<path fill-rule="evenodd" clip-rule="evenodd" d="M11.4668 5.90291C11.5736 5.73503 11.6095 5.53157 11.5663 5.33728C11.5232 5.14299 11.4046 4.9738 11.2368 4.86691C11.0689 4.76003 10.8654 4.72422 10.6711 4.76735C10.4768 4.81048 10.3076 4.92903 10.2008 5.09691L7.26376 9.71191L5.91976 8.03191C5.7955 7.8765 5.6146 7.7768 5.41684 7.75477C5.21909 7.73273 5.02067 7.79016 4.86526 7.91441C4.70984 8.03867 4.61015 8.21957 4.58811 8.41733C4.56608 8.61508 4.6235 8.8135 4.74776 8.96891L6.74776 11.4689C6.82229 11.5622 6.91803 11.6363 7.02699 11.6852C7.13596 11.734 7.25501 11.7561 7.37424 11.7497C7.49348 11.7432 7.60945 11.7084 7.7125 11.6481C7.81556 11.5877 7.90273 11.5037 7.96676 11.4029L11.4668 5.90291Z" fill="white"/>
</g>
<defs>
<clipPath id="clip0_7975_221725">
<rect width="16" height="16" fill="white" transform="translate(0.333496)"/>
</clipPath>
</defs>
</svg>
